#extradata 0:       34, 0xaf7b0d5c
#tb 0: 1/44100
#media_type 0: audio
#codec_id 0: flac
#sample_rate 0: 44100
#channel_layout_name 0: mono
0,          0,          0,     4608,     1396, 0x0dcb5677
0,       4608,       4608,     4608,     1439, 0xc46b5ac5
0,       9216,       9216,     4608,     1377, 0x5b2a55fe
0,      13824,      13824,     4608,     1380, 0x045550d3
0,      18432,      18432,     4608,     1568, 0xa2bc45f4
0,      23040,      23040,     4608,     1388, 0x96c85007
0,      27648,      27648,     4608,     1419, 0x4d4d466a
0,      32256,      32256,     4608,     1765, 0xacb84b24
0,      36864,      36864,     4608,     1531, 0x996458aa
0,      41472,      41472,     2628,      923, 0xa7225edf
